<svg id="visual" viewBox="0 0 900 600" width="900" height="600" xmlns="http://www.w3.org/2000/svg" xmlns:xlink="http://www.w3.org/1999/xlink" version="1.1"><g transform="translate(10.118897621808117 28.965929787221086)"><path d="M142.5 -172.5C201.4 -120.4 277.5 -91.4 283.7 -50.8C289.8 -10.3 226.1 41.7 181.5 91.4C136.9 141.1 111.4 188.5 66.6 221.4C21.9 254.3 -42.1 272.8 -100.3 258.8C-158.4 244.9 -210.9 198.4 -249 140C-287.1 81.7 -311 11.3 -302.7 -56.4C-294.4 -124.1 -253.9 -189.2 -198.1 -241.9C-142.3 -294.6 -71.1 -334.8 -14.7 -317.3C41.8 -299.8 83.6 -224.6 142.5 -172.5" fill="hsl(212, 41%, 20%)"></path></g></svg>