<svg id="visual" viewBox="0 0 900 600" width="900" height="600" xmlns="http://www.w3.org/2000/svg" xmlns:xlink="http://www.w3.org/1999/xlink" version="1.1"><g transform="translate(19.936721945834876 564.9077380048795)"><path d="M78.6 -139.1C107.2 -119.6 139.3 -109.3 167 -87.7C194.6 -66 217.8 -33 214.6 -1.8C211.5 29.3 181.9 58.7 159.4 89.3C136.9 119.9 121.5 151.7 96.1 185.4C70.7 219.1 35.3 254.5 -3.6 260.7C-42.5 266.9 -85 243.9 -112.9 211.6C-140.7 179.4 -153.9 137.9 -176 101.1C-198.1 64.3 -229 32.2 -244.5 -8.9C-259.9 -50 -259.9 -100 -231.2 -125.4C-202.5 -150.8 -145.3 -151.6 -102 -162.6C-58.7 -173.6 -29.3 -194.8 -2.2 -191.1C25 -187.3 50 -158.6 78.6 -139.1" fill="#808080"></path></g></svg>