<svg id="visual" viewBox="0 0 900 600" width="900" height="600" xmlns="http://www.w3.org/2000/svg" xmlns:xlink="http://www.w3.org/1999/xlink" version="1.1"><path d="M0 431L21.5 423C43 415 86 399 128.8 410.8C171.7 422.7 214.3 462.3 257.2 475.8C300 489.3 343 476.7 385.8 459.7C428.7 442.7 471.3 421.3 514.2 422.5C557 423.7 600 447.3 642.8 466.8C685.7 486.3 728.3 501.7 771.2 507C814 512.3 857 507.7 878.5 505.3L900 503L900 601L878.5 601C857 601 814 601 771.2 601C728.3 601 685.7 601 642.8 601C600 601 557 601 514.2 601C471.3 601 428.7 601 385.8 601C343 601 300 601 257.2 601C214.3 601 171.7 601 128.8 601C86 601 43 601 21.5 601L0 601Z" fill="grey" stroke-linecap="round" stroke-linejoin="miter"></path></svg>