<svg id="visual" viewBox="0 0 2000 600" width="2000" height="600" xmlns="http://www.w3.org/2000/svg" xmlns:xlink="http://www.w3.org/1999/xlink" version="1.1"><path d="M0 431L47.7 423C95.3 415 190.7 399 285.8 410.8C381 422.7 476 462.3 571.2 475.8C666.3 489.3 761.7 476.7 857 459.7C952.3 442.7 1047.7 421.3 1143 422.5C1238.3 423.7 1333.7 447.3 1428.8 466.8C1524 486.3 1619 501.7 1714.2 507C1809.3 512.3 1904.7 507.7 1952.3 505.3L2000 503L2000 601L1952.3 601C1904.7 601 1809.3 601 1714.2 601C1619 601 1524 601 1428.8 601C1333.7 601 1238.3 601 1143 601C1047.7 601 952.3 601 857 601C761.7 601 666.3 601 571.2 601C476 601 381 601 285.8 601C190.7 601 95.3 601 47.7 601L0 601Z" fill="#000000" stroke-linecap="round" stroke-linejoin="miter"></path></svg>